# xmcd
#
# Track frame offsets:
#	183
#	13743
#	27440
#	41088
#	53550
#	65943
#	80053
#	98788
#	113280
#	124113
#	137250
#	150593
#	162753
#	175588
#	190643
#	204633
#	217258
#	230128
#
# Disc length: 3245 seconds
#
# Revision: 1
# Processed by: cddbd v1.4PL0 Copyright (c) Steve Scherf et al.
# Submitted via: EasyCDDAExtractor 4.6.9.1
#
DISCID=f30cab12
DTITLE=Various Artist - That's Blues
DYEAR=1900
DGENRE=Blues
TTITLE0=Big Bill Broonzy - Come Home Early
TTITLE1=Leroy Carr - Big Four Blues
TTITLE2=Sleepy John Estes - Someday Baby Blues
TTITLE3=Lowell Fulson - Miss Lillie Brown
TTITLE4=Smokey Hogg - I Don't Want Nobody's Blodstains On
TTITLE5=John Lee Hooker - Big Town Blues
TTITLE6=Lightnin' Hopkins - Black Cat Blues
TTITLE7=Lonnie Johnson - Racketeer's Blues
TTITLE8=Robert Johnson - From Four Till Late
TTITLE9=Leadbelly - Packing Trunk Blues
TTITLE10=Tampa Red - You Can't Get That Stuff No More
TTITLE11=Memphis Slim - Diggin' My Potatoes
TTITLE12=Bessie Smith - Preachin' The Blues
TTITLE13=Trixie Smith - Freight TRain Blues
TTITLE14=Victoria Spivey - Black Snake BLues
TTITLE15=Roosevelt Sykes - Ups And Downs Blues
TTITLE16=Joe Turner - Roll 'em Pete
TTITLE17=Sonny Boy Williamson - Whiskey Headed Woman
EXTD=
EXTT0=
EXTT1=
EXTT2=
EXTT3=
EXTT4=
EXTT5=
EXTT6=
EXTT7=
EXTT8=
EXTT9=
EXTT10=
EXTT11=
EXTT12=
EXTT13=
EXTT14=
EXTT15=
EXTT16=
EXTT17=
PLAYORDER=
